<svg xmlns="http://www.w3.org/2000/svg" width="800" height="600">
  <defs>
    <radialGradient id="grad1" cx="80%" cy="50%" r="80%">
      <stop offset="20%" style="stop-color:#090cb8;stop-opacity:1" />
      <stop offset="100%" style="stop-color:#0D1117;stop-opacity:1" />
    </radialGradient>
  </defs>
  <rect width="900" height="600" fill="url(#grad1)" />
  <!-- Sample stars -->
  <circle cx="50"  cy="80"  r="1.5" fill="#F0F0F0" />
  <circle cx="120" cy="300" r="2"   fill="#FFFFFF" />
  <circle cx="300" cy="100" r="1.2" fill="#E0E0E0" />
  <circle cx="400" cy="500" r="1.8" fill="#A020F0" />
  <circle cx="600" cy="200" r="2"   fill="#800080" />
  <circle cx="700" cy="450" r="1.5" fill="#111111" />
  <circle cx="50"  cy="550" r="1.2" fill="#D8D8D8" />
  <circle cx="150" cy="50"  r="1.8" fill="#B19CD9" />
  <circle cx="250" cy="350" r="1.5" fill="#000000" />
  <circle cx="350" cy="150" r="2"   fill="#CCCCCC" />
  <circle cx="450" cy="400" r="1.5" fill="#6A0DAD" />
  <circle cx="550" cy="250" r="1.8" fill="#E8E8FF" />
  <circle cx="650" cy="350" r="1.2" fill="#F8F8FF" />
  <circle cx="750" cy="100" r="2"   fill="#A020F0" />
  <circle cx="800" cy="550" r="1.5" fill="#000000" />
  <circle cx="200" cy="480" r="1.3" fill="#EFEFEF" />
  <circle cx="370" cy="320" r="1.7" fill="#B266FF" />
  <circle cx="520" cy="80"  r="1.5" fill="#CCCCFF" />
  <circle cx="680" cy="520" r="1.2" fill="#333333" />
  <circle cx="770" cy="300" r="1.8" fill="#DADADA" />
</svg>
