<?xml version="1.0" standalone="no"?>
<!DOCTYPE svg PUBLIC "-//W3C//DTD SVG 20010904//EN"
 "http://www.w3.org/TR/2001/REC-SVG-20010904/DTD/svg10.dtd">
<svg version="1.0" xmlns="http://www.w3.org/2000/svg"
 width="736.000000pt" height="736.000000pt" viewBox="0 0 736.000000 736.000000"
 preserveAspectRatio="xMidYMid meet" fill="#0066FF">


<g transform="translate(0.000000,736.000000) scale(0.100000,-0.100000)"
fill="#0066FF" stroke="none">
<path d="M2458 4233 c-92 -192 -129 -357 -129 -573 0 -115 20 -292 34 -306 12
-12 94 39 117 73 54 81 187 109 261 54 26 -19 35 -21 61 -12 132 46 288 -52
288 -183 0 -34 13 -46 48 -46 9 0 44 -13 77 -29 63 -29 106 -71 133 -129 16
-32 19 -33 57 -28 22 4 61 2 87 -2 l47 -9 15 71 c9 39 17 104 20 144 3 39 7
76 11 81 3 6 -11 11 -32 13 l-37 3 -26 82 c-14 45 -29 85 -33 89 -4 4 -7 -31
-7 -78 0 -69 -3 -88 -17 -100 -20 -17 -189 -118 -198 -118 -3 0 -5 47 -5 103
l0 104 95 157 94 158 2 99 c1 55 -2 103 -5 106 -3 4 -6 -3 -6 -15 0 -31 -16
-27 -28 6 -6 15 -11 20 -11 12 -1 -13 -47 -15 -363 -13 -339 2 -363 3 -369 20
-7 15 -8 15 -8 -4 -1 -13 -6 -23 -12 -23 -21 0 -3 81 40 193 24 59 46 107 51
107 4 0 10 9 13 20 3 11 2 18 -2 15 -5 -2 -14 7 -21 20 -13 23 -17 25 -64 19
-28 -4 -54 -12 -58 -18 -6 -8 -11 -6 -18 4 -9 13 -10 13 -11 0 0 -8 -5 0 -10
18 -5 17 -13 32 -17 32 -4 0 -33 -53 -64 -117z m68 62 c0 -20 -3 -30 -6 -24
-5 7 -15 3 -30 -13 l-22 -23 23 47 c13 26 26 48 29 48 3 0 5 -16 6 -35z m28
-39 c-3 -9 -10 -16 -15 -16 -5 0 -4 9 3 20 14 22 21 20 12 -4z m-64 -146 c0
-26 5 -31 30 -36 17 -4 30 -10 30 -15 0 -5 -13 -9 -30 -9 -25 0 -30 -4 -30
-24 0 -14 -4 -28 -10 -31 -6 -4 -10 6 -10 24 0 26 -4 30 -32 33 -18 2 -31 8
-29 13 1 6 8 9 13 7 26 -7 48 10 48 39 0 16 5 29 10 29 6 0 10 -14 10 -30z
m611 -241 c49 -16 99 -74 99 -116 0 -33 -8 -41 -25 -24 -6 5 -19 5 -30 1 -19
-8 -19 -9 3 -9 34 -1 26 -19 -10 -23 -27 -3 -33 -9 -42 -38 l-10 -35 -5 34
c-3 19 -12 36 -20 39 -9 3 -11 0 -6 -9 6 -11 5 -12 -6 -1 -16 14 -59 16 -59 2
0 -5 -20 -10 -44 -10 -43 0 -44 1 -48 38 -9 68 42 135 117 153 44 10 49 10 86
-2z"/>
<path d="M4835 4340 c3 -5 8 -10 11 -10 2 0 4 5 4 10 0 6 -5 10 -11 10 -5 0
-7 -4 -4 -10z"/>
<path d="M4624 4323 c-8 -3 -2 -22 15 -56 84 -167 126 -297 101 -312 -6 -4
-52 -7 -102 -6 -85 2 -125 -9 -113 -29 6 -10 -25 -16 -120 -25 -38 -4 -74 -10
-80 -13 -12 -8 -17 -9 -134 -22 -52 -6 -104 -13 -116 -16 -25 -6 -44 18 -64
79 -15 46 -31 48 -32 5 -1 -20 -3 -25 -6 -13 -2 11 -12 30 -21 42 -16 22 -17
18 -14 -93 l3 -115 95 -155 94 -155 0 -105 c0 -57 -2 -104 -5 -104 -9 0 -178
101 -197 118 -15 12 -18 31 -18 100 0 47 -3 82 -7 78 -5 -4 -19 -44 -33 -89
l-25 -82 -38 -3 c-21 -2 -35 -7 -31 -13 3 -5 8 -42 10 -82 2 -40 11 -104 20
-143 l15 -71 46 8 c25 5 62 6 82 3 33 -5 38 -3 49 20 18 40 92 116 134 137 20
10 60 24 87 30 37 8 48 14 44 25 -9 24 17 100 48 137 39 48 103 77 168 77 29
0 62 -5 73 -11 17 -9 31 -6 74 16 95 48 195 23 254 -62 20 -29 106 -80 117
-69 2 2 11 42 19 87 29 167 15 417 -32 580 -29 99 -106 283 -123 294 -17 10
-13 -11 4 -25 8 -7 15 -17 15 -22 0 -17 -31 14 -42 42 l-11 25 -7 -33 c-10
-44 -16 -48 -24 -17 -5 21 -12 25 -42 25 -19 0 -33 4 -30 9 11 17 -39 -2 -52
-21 -18 -25 -30 -23 -34 5 -2 13 -8 22 -14 20z m210 -68 c-4 -8 -11 -15 -16
-15 -6 0 -5 6 2 15 7 8 14 15 16 15 2 0 1 -7 -2 -15z m76 -70 c0 -5 -5 -3 -10
5 -5 8 -10 20 -10 25 0 6 5 3 10 -5 5 -8 10 -19 10 -25z m-228 -372 c2 -21 11
-29 38 -37 l35 -10 -35 -5 c-29 -5 -36 -11 -38 -34 -4 -33 -22 -26 -22 9 0 20
-5 24 -31 24 -17 0 -28 4 -24 10 3 6 17 10 31 10 20 0 24 5 24 30 0 37 18 40
22 3z"/>
<path d="M4748 4323 c7 -3 16 -2 19 1 4 3 -2 6 -13 5 -11 0 -14 -3 -6 -6z"/>
<path d="M4788 4323 c7 -3 16 -2 19 1 4 3 -2 6 -13 5 -11 0 -14 -3 -6 -6z"/>
<path d="M3767 4017 c-4 -10 -3 -16 2 -13 15 10 23 -44 11 -78 -9 -29 -13 -32
-45 -28 -21 3 -35 0 -35 -7 0 -6 6 -8 14 -5 8 3 17 1 20 -5 4 -6 -5 -13 -19
-17 -14 -3 -25 -10 -25 -15 0 -4 14 -3 30 2 17 6 30 16 30 22 0 6 3 7 7 4 10
-10 31 25 37 64 7 41 -16 105 -27 76z"/>
<path d="M3392 3970 c0 -19 2 -27 5 -17 2 9 2 25 0 35 -3 9 -5 1 -5 -18z"/>
<path d="M3962 3975 c0 -16 2 -22 5 -12 2 9 2 23 0 30 -3 6 -5 -1 -5 -18z"/>
<path d="M2728 3963 c28 -2 76 -2 105 0 28 2 5 3 -53 3 -58 0 -81 -1 -52 -3z"/>
<path d="M3058 3963 c12 -2 30 -2 40 0 9 3 -1 5 -23 4 -22 0 -30 -2 -17 -4z"/>
<path d="M3238 3963 c23 -2 59 -2 80 0 20 2 1 4 -43 4 -44 0 -61 -2 -37 -4z"/>
<path d="M4598 3963 c12 -2 30 -2 40 0 9 3 -1 5 -23 4 -22 0 -30 -2 -17 -4z"/>
<path d="M3760 3936 c0 -8 -6 -17 -12 -19 -8 -3 -6 -6 5 -6 11 -1 17 6 17 19
0 11 -2 20 -5 20 -3 0 -5 -6 -5 -14z"/>
<path d="M2900 3254 c0 -5 6 -19 14 -30 12 -15 17 -17 27 -6 11 10 10 12 0 12
-8 0 -20 8 -27 18 -7 9 -14 12 -14 6z"/>
<path d="M3048 3253 c6 -2 18 -2 25 0 6 3 1 5 -13 5 -14 0 -19 -2 -12 -5z"/>
<path d="M4281 3256 c10 -8 89 -13 83 -5 -3 5 -24 9 -46 9 -23 0 -39 -2 -37
-4z"/>
<path d="M4442 3244 c-7 -12 -17 -15 -33 -11 -23 6 -23 5 -5 -8 26 -20 33 -19
46 6 14 25 6 38 -8 13z"/>
<path d="M2960 3240 c0 -5 7 -7 15 -4 8 4 15 8 15 10 0 2 -7 4 -15 4 -8 0 -15
-4 -15 -10z"/>
<path d="M2977 3040 c-12 -45 -10 -46 71 -46 67 0 84 -4 126 -29 39 -23 50
-25 56 -14 13 21 -24 51 -54 43 -13 -3 -27 -1 -30 5 -4 6 -18 11 -32 11 -14 0
-34 5 -45 11 -11 6 -33 11 -49 11 -18 1 -30 7 -32 17 -3 11 -6 8 -11 -9z"/>
<path d="M4297 3023 c-12 -7 -30 -12 -39 -13 -10 0 -18 -4 -18 -9 0 -5 -9 -7
-19 -4 -27 7 -91 -16 -91 -32 0 -23 15 -25 46 -6 44 27 121 43 170 35 42 -6
44 -5 44 20 0 24 -3 26 -36 23 -19 -1 -45 -7 -57 -14z"/>
<path d="M2547 2927 c48 -78 47 -77 106 -54 29 11 75 24 102 27 l50 7 -70 3
c-38 2 -78 4 -88 3 -11 0 -16 6 -13 14 3 7 1 13 -4 13 -6 0 -10 -5 -10 -12 0
-6 -12 -1 -26 13 -14 13 -27 23 -30 22 -2 -2 -5 -3 -6 -2 -35 10 -36 6 -11
-34z m11 8 c-3 -3 -9 2 -12 12 -6 14 -5 15 5 6 7 -7 10 -15 7 -18z m42 -44 c0
-9 -7 -3 -15 13 -19 36 -19 47 0 22 8 -11 15 -27 15 -35z"/>
<path d="M4805 2950 c4 -13 -1 -22 -15 -30 -14 -8 -20 -8 -20 0 0 6 -8 10 -17
8 -10 -2 -24 3 -31 12 -11 13 -11 13 -6 -2 4 -12 -2 -18 -25 -23 -39 -8 -33
-19 26 -45 55 -24 57 -24 49 -3 -4 10 -4 14 0 11 7 -7 25 14 56 62 15 24 15
26 -4 27 -14 1 -18 -3 -13 -17z"/>
<path d="M4770 2945 c0 -8 7 -15 15 -15 8 0 15 4 15 9 0 5 -7 11 -15 15 -9 3
-15 0 -15 -9z"/>
<path d="M4618 2903 c7 -3 16 -2 19 1 4 3 -2 6 -13 5 -11 0 -14 -3 -6 -6z"/>
<path d="M4370 2860 c-9 -6 -10 -10 -3 -10 6 0 15 5 18 10 8 12 4 12 -15 0z"/>
<path d="M2990 2846 c0 -2 7 -7 16 -10 8 -3 12 -2 9 4 -6 10 -25 14 -25 6z"/>
<path d="M3076 2778 c16 -18 31 -35 34 -38 10 -10 41 -66 47 -83 3 -10 8 -16
12 -14 46 25 104 47 130 49 40 3 46 11 23 30 -21 19 -91 42 -99 34 -4 -3 -12
-1 -19 5 -8 6 -20 9 -27 6 -8 -3 -22 4 -32 16 -15 18 -19 18 -29 5 -10 -13
-13 -13 -30 4 -33 31 -41 20 -10 -14z m241 -64 c-3 -3 -12 -4 -19 -1 -8 3 -5
6 6 6 11 1 17 -2 13 -5z"/>
<path d="M4266 2783 c-10 -10 -15 -12 -11 -4 5 10 2 12 -11 8 -11 -4 -50 -13
-89 -22 -38 -8 -81 -17 -93 -20 -16 -4 -22 -11 -18 -21 4 -11 0 -13 -22 -7
-23 6 -25 5 -12 -8 8 -8 30 -15 48 -16 26 -2 92 -27 133 -50 3 -2 12 11 21 29
8 18 32 54 52 81 36 47 37 63 2 30z"/>
<path d="M2921 2547 c2 -1 13 -9 24 -17 19 -14 19 -14 6 3 -7 9 -18 17 -24 17
-6 0 -8 -1 -6 -3z"/>
<path d="M4380 2540 c-9 -6 -10 -10 -3 -10 6 0 15 5 18 10 8 12 4 12 -15 0z"/>
<path d="M3042 2516 c7 -7 19 -11 27 -8 11 4 10 7 -5 13 -29 12 -36 10 -22 -5z"/>
<path d="M2980 2509 c0 -11 44 -19 53 -10 5 5 -5 11 -22 13 -17 3 -31 1 -31
-3z"/>
<path d="M4352 2513 c-18 -2 -30 -9 -27 -14 9 -13 28 -11 51 6 10 8 17 14 14
13 -3 -1 -20 -3 -38 -5z"/>
</g>
</svg>
